#!OML:ASF X:\für Bonn\!DataBase\2005_08_10_Bjorn_Final\c3d\bjorn.ASF
:FULLY-SPECIFIED
:DEGREES
140
root 1.63675 17.4125 0.955611 -197.169 16.9943 183.13
lowerback -11.1725 0.461882 5.31952
upperback 12.0521 0.27529 1.32057
thorax 20.5234 1.13804 -1.18499
lowerneck -3.95117 5.41565 9.12022
upperneck 9.0294 7.69239 -8.95727
head 4.03148 3.79898 -3.82996
rclavicle -4.1223e-014 5.96354e-015
rhumerus -314.225 26.124 279.058
rradius 96.7729
rwrist 24.4595
rhand -52.7915 53.0504
rfingers 7.12502
rthumb -25.266 24.7034
lclavicle -4.1223e-014 5.96354e-015
lhumerus 38.5634 -37.0075 84.7504
lradius 111.602
lwrist 10.1713
lhand -52.0369 -23.5506
lfingers 7.12502
lthumb -24.5429 4.89649
rfemur 24.9008 5.20284 14.9675
rtibia 34.0023
rfoot -26.3982 23.2825
rtoes -19.1132
lfemur -13.6839 -1.80187 -7.7973
ltibia 58.2598
lfoot -16.5006 -8.18159
ltoes -28.2852
141
root 1.59672 17.4912 0.876588 -196.701 17.3801 183.012
lowerback -11.2515 0.611487 5.29826
upperback 11.8674 0.446088 1.33993
thorax 20.3397 1.18532 -1.11358
lowerneck -3.94043 5.40292 8.91602
upperneck 8.49453 7.63094 -8.93919
head 3.8548 3.75748 -3.79959
rclavicle -1.68718e-014 2.5842e-014
rhumerus -313.563 26.3192 279.253
rradius 96.142
rwrist 24.2467
rhand -52.7556 53.3725
rfingers 7.12502
rthumb -25.2316 25.0206
lclavicle -1.68718e-014 2.5842e-014
lhumerus 38.3747 -36.912 84.925
lradius 111.773
lwrist 10.3007
lhand -51.7173 -23.3683
lfingers 7.12502
lthumb -24.2365 5.12001
rfemur 24.6938 5.41422 14.5499
rtibia 33.3475
rfoot -25.0814 23.6318
rtoes -19.0073
lfemur -13.489 -1.19919 -7.88315
ltibia 57.5177
lfoot -16.1599 -8.83783
ltoes -26.5671
142
root 1.55667 17.5746 0.801237 -196.214 17.7689 182.893
lowerback -11.312 0.766713 5.26129
upperback 11.6721 0.628041 1.36522
thorax 20.1292 1.23429 -1.02429
lowerneck -3.94362 5.3854 8.66806
upperneck 8.01582 7.56744 -8.86997
head 3.69401 3.71695 -3.74592
rclavicle -4.23784e-014 1.90833e-014
rhumerus -312.733 26.4567 279.463
rradius 95.3514
rwrist 24.1949
rhand -52.8335 53.4457
rfingers 7.12502
rthumb -25.3062 25.1044
lclavicle -4.23784e-014 1.90833e-014
lhumerus 38.3847 -36.7388 85.0584
lradius 111.804
lwrist 10.5463
lhand -51.5628 -23.2794
lfingers 7.12502
lthumb -24.0884 5.22854
rfemur 24.4271 5.61159 14.1246
rtibia 32.6947
rfoot -23.5431 24.0269
rtoes -18.3492
lfemur -13.2745 -0.614187 -7.98406
ltibia 56.6752
lfoot -15.7458 -9.4219
ltoes -24.8482
143
root 1.51657 17.6649 0.729487 -195.698 18.1766 182.786
lowerback -11.3652 0.934024 5.2424
upperback 11.4871 0.827422 1.38138
thorax 19.9306 1.29659 -0.950398
lowerneck -4.0695 5.35807 8.43263
upperneck 7.63214 7.48723 -8.78204
head 3.58089 3.66679 -3.68567
rclavicle -2.82026e-014 -3.24019e-014
rhumerus -311.787 26.5156 279.649
rradius 94.4621
rwrist 24.3416
rhand -52.9797 53.3162
rfingers 7.12502
rthumb -25.4463 24.9948
lclavicle -2.82026e-014 -3.24019e-014
lhumerus 38.6494 -36.4511 85.1013
lradius 111.665
lwrist 10.8976
lhand -51.7552 -22.9217
lfingers 7.12502
lthumb -24.2729 5.5617
rfemur 24.098 5.77986 13.6945
rtibia 32.0307
rfoot -21.8868 24.3733
rtoes -17.6065
lfemur -13.0429 -0.112847 -8.1023
ltibia 55.7307
lfoot -15.2963 -9.87442
ltoes -23.3021
144
root 1.47634 17.7653 0.661763 -195.119 18.5792 182.669
lowerback -11.4365 1.1164 5.21587
upperback 11.2765 1.04817 1.3698
thorax 19.7129 1.36812 -0.900397
lowerneck -4.1192 5.31363 8.29828
upperneck 7.21774 7.3857 -8.73041
head 3.44942 3.61029 -3.65656
rclavicle -1.43249e-014 -5.96354e-015
rhumerus -310.759 26.4763 279.789
rradius 93.4798
rwrist 24.5285
rhand -53.1544 53.1816
rfingers 7.12502
rthumb -25.6136 24.8841
lclavicle -1.43249e-014 -5.96354e-015
lhumerus 39.1363 -36.1106 85.0521
lradius 111.355
lwrist 11.369
lhand -51.9483 -22.7518
lfingers 7.12502
lthumb -24.458 5.70671
rfemur 23.6496 5.87402 13.2115
rtibia 31.3673
rfoot -20.0872 24.6786
rtoes -16.8632
lfemur -12.8322 0.301999 -8.26763
ltibia 54.6741
lfoot -14.7553 -10.1996
ltoes -21.7309
145
root 1.43529 17.871 0.599982 -194.534 18.9856 182.542
lowerback -11.4156 1.29306 5.17201
upperback 11.0204 1.26817 1.35106
thorax 19.3712 1.43439 -0.855512
lowerneck -4.17715 5.26045 8.1572
upperneck 6.96509 7.28807 -8.66188
head 3.36741 3.55754 -3.61933
rclavicle 1.46976e-014 -3.57812e-015
rhumerus -309.73 26.4082 279.813
rradius 92.3699
rwrist 24.828
rhand -53.3325 52.9291
rfingers 7.12502
rthumb -25.7842 24.6564
lclavicle 1.46976e-014 -3.57812e-015
lhumerus 39.6655 -35.6732 85.0363
lradius 110.877
lwrist 11.9213
lhand -52.0993 -22.9353
lfingers 7.12502
lthumb -24.6027 5.50366
rfemur 23.1377 5.91951 12.6846
rtibia 30.7222
rfoot -18.1015 25.0039
rtoes -15.7652
lfemur -12.6186 0.726622 -8.46742
ltibia 53.5266
lfoot -14.2882 -10.3034
ltoes -21.5943
146
root 1.39398 17.9816 0.543633 -193.937 19.4346 182.392
lowerback -11.3729 1.50476 5.15245
upperback 10.7469 1.53889 1.2817
thorax 19.001 1.53112 -0.87163
lowerneck -4.26856 5.1971 8.10011
upperneck 6.85305 7.17741 -8.56545
head 3.33412 3.50059 -3.58578
rclavicle -3.95085e-015 1.8487e-014
rhumerus -308.724 26.2381 279.72
rradius 91.2223
rwrist 25.1042
rhand -53.534 52.9462
rfingers 7.12502
rthumb -25.9772 24.7016
lclavicle -3.95085e-015 1.8487e-014
lhumerus 40.318 -35.2246 84.9376
lradius 110.244
lwrist 12.5318
lhand -52.1458 -23.1607
lfingers 7.12502
lthumb -24.6473 5.27218
rfemur 22.5197 5.94299 12.1079
rtibia 30.1254
rfoot -15.9741 25.2979
rtoes -14.654
lfemur -12.3905 1.16096 -8.69589
ltibia 52.2912
lfoot -13.6885 -10.3731
ltoes -21.3863
147
root 1.35332 18.0941 0.493269 -193.318 19.8957 182.252
lowerback -11.2703 1.72347 5.12655
upperback 10.4228 1.82073 1.20723
thorax 18.5285 1.62945 -0.893129
lowerneck -4.34863 5.13404 8.07816
upperneck 6.91286 7.08096 -8.46247
head 3.35265 3.453 -3.55387
rclavicle -2.02512e-015 2.16675e-014
rhumerus -307.488 26.0444 279.639
rradius 89.7133
rwrist 25.2554
rhand -53.7305 53.4976
rfingers 7.12502
rthumb -26.1653 25.2808
lclavicle -2.02512e-015 2.16675e-014
lhumerus 40.9626 -34.7157 84.9007
lradius 109.482
lwrist 13.2004
lhand -52.0759 -23.3533
lfingers 7.12502
lthumb -24.5802 5.08863
rfemur 21.8103 5.93906 11.5358
rtibia 29.5889
rfoot -13.7556 25.5188
rtoes -13.4686
lfemur -12.1872 1.60068 -8.92066
ltibia 50.9933
lfoot -12.9768 -10.3838
ltoes -21.2598
148
root 1.31297 18.207 0.450801 -192.73 20.3374 182.089
lowerback -11.1177 1.92717 5.04826
upperback 10.1158 2.10033 1.12551
thorax 18.0469 1.72422 -0.895903
lowerneck -4.45689 5.07217 7.98975
upperneck 6.99405 6.98371 -8.28998
head 3.37759 3.40497 -3.4892
rclavicle -4.22417e-015 -1.37161e-014
rhumerus -306.248 25.8253 279.568
rradius 88.2065
rwrist 25.3218
rhand -53.8112 54.0617
rfingers 7.12502
rthumb -26.2426 25.8563
lclavicle -4.22417e-015 -1.37161e-014
lhumerus 41.7257 -34.0949 84.8949
lradius 108.549
lwrist 13.9055
lhand -51.8052 -23.4099
lfingers 7.12502
lthumb -24.3207 5.06716
rfemur 21.0596 5.89327 10.9341
rtibia 29.1106
rfoot -11.4187 25.65
rtoes -12.3262
lfemur -11.9685 1.98451 -9.18329
ltibia 49.6463
lfoot -12.1536 -10.3724
ltoes -21.1892
149
root 1.27347 18.3288 0.416156 -192.086 20.7337 181.882
lowerback -10.9544 2.1289 4.89011
upperback 9.76616 2.39257 1.00917
thorax 17.5065 1.81608 -0.894989
lowerneck -4.43989 5.00657 7.86258
upperneck 6.92211 6.86957 -8.00229
head 3.32955 3.35374 -3.38851
rclavicle -5.81818e-014 1.39149e-014
rhumerus -305.151 25.5819 279.329
rradius 86.6851
rwrist 25.3704
rhand -53.8275 55.2303
rfingers 7.12502
rthumb -26.2582 27.0272
lclavicle -5.81818e-014 1.39149e-014
lhumerus 42.5182 -33.4369 84.895
lradius 107.533
lwrist 14.7291
lhand -51.2227 -23.3505
lfingers 7.12502
lthumb -23.7622 5.20025
rfemur 20.1504 5.69392 10.2308
rtibia 28.7061
rfoot -8.95916 25.7651
rtoes -11.2018
lfemur -11.864 2.31371 -9.50909
ltibia 48.2688
lfoot -11.2805 -10.3025
ltoes -21.3657
150
root 1.23582 18.4603 0.386331 -191.325 21.1382 181.658
lowerback -10.8531 2.33682 4.68911
upperback 9.37084 2.69342 0.870904
thorax 16.9545 1.90707 -0.893706
lowerneck -4.3821 4.95058 7.7542
upperneck 6.79831 6.76526 -7.70013
head 3.26065 3.30889 -3.28734
rclavicle 3.26752e-015 -1.39149e-014
rhumerus -303.96 25.3411 279.11
rradius 84.9676
rwrist 25.3204
rhand -53.693 56.6132
rfingers 7.12502
rthumb -26.1295 28.391
lclavicle 3.26752e-015 -1.39149e-014
lhumerus 43.3811 -32.6874 84.8832
lradius 106.413
lwrist 15.6484
lhand -50.5309 -23.2428
lfingers 7.12502
lthumb -23.0986 5.39262
rfemur 19.0324 5.46274 9.52689
rtibia 28.3732
rfoot -6.49576 25.7884
rtoes -10.4927
lfemur -11.9201 2.63461 -9.85722
ltibia 46.8824
lfoot -10.3321 -10.1865
ltoes -21.4548
151
root 1.19807 18.5916 0.362364 -190.513 21.4954 181.46
lowerback -10.7573 2.53815 4.48654
upperback 8.95042 2.98498 0.71702
thorax 16.3813 1.9964 -0.912832
lowerneck -4.34594 4.87843 7.75072
upperneck 6.7192 6.64252 -7.48749
head 3.21419 3.25418 -3.23043
rclavicle 1.68905e-014 -1.28216e-014
rhumerus -302.642 25.0571 278.951
rradius 82.9483
rwrist 25.182
rhand -53.4963 58.1363
rfingers 7.12502
rthumb -25.941 29.8864
lclavicle 1.68905e-014 -1.28216e-014
lhumerus 44.1948 -31.9317 84.9766
lradius 105.163
lwrist 16.6994
lhand -49.7606 -23.4881
lfingers 7.12502
lthumb -22.3593 5.23802
rfemur 17.8084 5.09721 8.8293
rtibia 28.1328
rfoot -4.07634 25.7959
rtoes -10.2333
lfemur -12.0638 2.87568 -10.1928
ltibia 45.4914
lfoot -9.28647 -10.0552
ltoes -21.5645
152
root 1.16254 18.7233 0.340887 -189.66 21.8646 181.275
lowerback -10.6869 2.73603 4.28582
upperback 8.51055 3.27126 0.539022
thorax 15.8088 2.0871 -0.960967
lowerneck -4.41878 4.81321 7.89079
upperneck 6.79904 6.5326 -7.38984
head 3.24303 3.20384 -3.22686
rclavicle 2.30901e-014 -6.06293e-015
rhumerus -301.254 24.7552 278.701
rradius 80.7299
rwrist 25.1276
rhand -53.239 59.6042
rfingers 7.12502
rthumb -25.6947 31.3185
lclavicle 2.30901e-014 -6.06293e-015
lhumerus 44.9219 -31.1284 85.2127
lradius 103.708
lwrist 17.8937
lhand -49.0362 -24.154
lfingers 7.12502
lthumb -21.6637 4.65404
rfemur 16.4871 4.76824 8.20015
rtibia 27.998
rfoot -1.78653 25.6992
rtoes -10.2975
lfemur -12.2645 3.12453 -10.5082
ltibia 44.1028
lfoot -8.19798 -9.92124
ltoes -21.6201
